<svg xmlns="http://www.w3.org/2000/svg" xmlns:xlink="http://www.w3.org/1999/xlink" version="1.1" viewBox="0 0 512 512" xml:space="preserve">
    <symbol id="skill-shopify_simpleicon" viewBox="0 0 512 512">
        <title aria-hidden="true">SHOPIFY</title>
        <g>
            <path d="M 425.8 98.6 c -0.4 -2.6 -2.6 -4 -4.5 -4.2 c -1.9 -0.2 -38.3 -0.7 -38.3 -0.7 s -30.5 -29.6 -33.5 -32.6 s -8.9 -2.1 -11.2 -1.4 c 0 0 -5.7 1.8 -15.3 4.7 c -1.6 -5.2 -4 -11.6 -7.3 -18 c -10.9 -20.7 -26.7 -31.7 -45.9 -31.7 c 0 0 0 0 -0.1 0 c -1.3 0 -2.7 0.1 -4 0.2 c -0.6 -0.7 -1.1 -1.4 -1.7 -2 c -8.4 -8.9 -19.1 -13.3 -31.9 -12.9 c -24.8 0.7 -49.5 18.6 -69.5 50.4 c -14.1 22.4 -24.8 50.5 -27.9 72.3 c -28.5 8.8 -48.4 15 -48.8 15.1 c -14.4 4.5 -14.8 5 -16.7 18.5 c -1.4 10.3 -39 301.1 -39 301.1 L 345.3 512 l 136.6 -34 C 481.9 478 426.2 101.2 425.8 98.6 z M 152.3 117.3 c 8.5 -39.9 41.9 -99.6 80.2 -100.8 c 5.8 -0.1 10.7 1.2 14.9 3.9 c -6.7 3.5 -13.2 8.5 -19.3 15 c -15.8 16.9 -27.8 43.1 -32.6 68.5 C 180.5 108.5 165.8 113.1 152.3 117.3 z M 266.3 82 c -16.5 5.1 -34.5 10.7 -52.6 16.3 c 5.1 -19.5 14.7 -38.9 26.6 -51.6 c 4.4 -4.7 10.6 -10 17.9 -13 C 265 48 266.5 68.3 266.3 82 z M 282.8 76.9 c -0.2 -12.6 -1.7 -30 -7.5 -45.1 c 18.8 3.6 28.1 24.9 32 37.6 C 300 71.5 291.7 74.1 282.8 76.9 z"  />
            <path d="M 421.3 94.4 c -1.9 -0.2 -38.3 -0.7 -38.3 -0.7 s -30.5 -29.6 -33.5 -32.6 c -1.1 -1.1 -2.6 -1.7 -4.2 -1.9 l 0 452.9 l 136.6 -34 c 0 0 -55.7 -376.9 -56.1 -379.4 C 425.5 96 423.2 94.6 421.3 94.4 z"  />
            <path d="M 269.6 164.7 l -15.9 59.4 c 0 0 -17.7 -8.1 -38.7 -6.7 c -30.8 1.9 -31.1 21.4 -30.8 26.2 c 1.7 26.5 71.5 32.4 75.4 94.5 c 3.1 48.9 -25.9 82.4 -67.8 85 c -50.2 3.2 -77.9 -26.5 -77.9 -26.5 l 10.6 -45.3 c 0 0 27.8 21 50.1 19.6 c 14.5 -0.9 19.7 -12.8 19.2 -21.1 c -2.2 -34.6 -59.1 -32.6 -62.7 -89.5 c -3 -47.9 28.4 -96.4 97.8 -100.8 C 255.9 157.8 269.6 164.7 269.6 164.7 z" fill="rgba(0,0,0,0.7)" />
        </g>
    </symbol>
    <symbol id="skill-shopify_iconfinder" viewBox="0 0 512 512">
        <title aria-hidden="true">SHOPIFY</title>
        <g>
            <path d="M 425.8 98.6 c -0.4 -2.6 -2.6 -4 -4.5 -4.2 c -1.9 -0.2 -38.3 -0.7 -38.3 -0.7 s -30.5 -29.6 -33.5 -32.6 s -8.9 -2.1 -11.2 -1.4 c 0 0 -5.7 1.8 -15.3 4.7 c -1.6 -5.2 -4 -11.6 -7.3 -18 c -10.9 -20.7 -26.7 -31.7 -45.9 -31.7 c 0 0 0 0 -0.1 0 c -1.3 0 -2.7 0.1 -4 0.2 c -0.6 -0.7 -1.1 -1.4 -1.7 -2 c -8.4 -8.9 -19.1 -13.3 -31.9 -12.9 c -24.8 0.7 -49.5 18.6 -69.5 50.4 c -14.1 22.4 -24.8 50.5 -27.9 72.3 c -28.5 8.8 -48.4 15 -48.8 15.1 c -14.4 4.5 -14.8 5 -16.7 18.5 c -1.4 10.3 -39 301.1 -39 301.1 L 345.3 512 l 136.6 -34 C 481.9 478 426.2 101.2 425.8 98.6 z M 152.3 117.3 c 8.5 -39.9 41.9 -99.6 80.2 -100.8 c 5.8 -0.1 10.7 1.2 14.9 3.9 c -6.7 3.5 -13.2 8.5 -19.3 15 c -15.8 16.9 -27.8 43.1 -32.6 68.5 C 180.5 108.5 165.8 113.1 152.3 117.3 z M 266.3 82 c -16.5 5.1 -34.5 10.7 -52.6 16.3 c 5.1 -19.5 14.7 -38.9 26.6 -51.6 c 4.4 -4.7 10.6 -10 17.9 -13 C 265 48 266.5 68.3 266.3 82 z M 282.8 76.9 c -0.2 -12.6 -1.7 -30 -7.5 -45.1 c 18.8 3.6 28.1 24.9 32 37.6 C 300 71.5 291.7 74.1 282.8 76.9 z" fill="#92bf47" />
            <path d="M 421.3 94.4 c -1.9 -0.2 -38.3 -0.7 -38.3 -0.7 s -30.5 -29.6 -33.5 -32.6 c -1.1 -1.1 -2.6 -1.7 -4.2 -1.9 l 0 452.9 l 136.6 -34 c 0 0 -55.7 -376.9 -56.1 -379.4 C 425.5 96 423.2 94.6 421.3 94.4 z" fill="#5e8e3e" />
            <path d="M 269.6 164.7 l -15.9 59.4 c 0 0 -17.7 -8.1 -38.7 -6.7 c -30.8 1.9 -31.1 21.4 -30.8 26.2 c 1.7 26.5 71.5 32.4 75.4 94.5 c 3.1 48.9 -25.9 82.4 -67.8 85 c -50.2 3.2 -77.9 -26.5 -77.9 -26.5 l 10.6 -45.3 c 0 0 27.8 21 50.1 19.6 c 14.5 -0.9 19.7 -12.8 19.2 -21.1 c -2.2 -34.6 -59.1 -32.6 -62.7 -89.5 c -3 -47.9 28.4 -96.4 97.8 -100.8 C 255.9 157.8 269.6 164.7 269.6 164.7 z" fill="#ffffff" />
        </g>
    </symbol>
</svg>