<svg xmlns="http://www.w3.org/2000/svg" viewBox="0 0 128 128">
    <symbol id="skill-sass_simpleicon" viewBox="0 0 24 24">
        <title aria-hidden="true">LESS</title>
        <path d="M3.598 7.15a7.961 7.961 0 0 0-1.054.068c-.281.041-.52.124-.717.249a1.19 1.19 0 0 0-.45.497c-.098.208-.14.47-.14.802V10.3c0 .428-.084.732-.253.884-.169.166-.492.25-.984.25v1.16c.478 0 .815.083.984.249.169.166.253.47.253.912v1.548c0 .594.183 1.009.548 1.23.38.207.984.318 1.813.318v-1.078c-.393 0-.646-.07-.773-.194-.126-.124-.183-.373-.183-.746v-1.465c0-.373-.098-.663-.28-.87-.184-.208-.479-.374-.886-.484.393-.125.688-.29.871-.512.183-.22.281-.511.281-.87V9.167c0-.36.057-.608.183-.733.122-.12.412-.195.787-.2v4.547c0 .416.03.764.09 1.044.059.28.164.52.314.724.15.203.356.35.616.443.26.093.589.14.984.14.098 0 .205-.007.32-.02a5.336 5.336 0 0 0 .65-.107l-.036-.98c-.27.038-.492.057-.667.057-.353 0-.59-.092-.713-.276-.122-.183-.183-.534-.183-1.051V7.149H3.598zm16.818-.001v1.092c.393 0 .647.069.773.193.127.125.183.373.183.733v1.465c0 .359.098.65.28.87.184.222.479.387.872.512-.407.11-.702.276-.885.483-.183.208-.281.498-.281.871v1.465c0 .373-.057.622-.183.746-.126.125-.38.194-.773.194v1.078c.83 0 1.434-.11 1.813-.318.365-.221.548-.636.548-1.23v-1.548c0-.442.085-.746.253-.912.169-.166.506-.249.984-.249v-1.16c-.492 0-.815-.084-.984-.25-.168-.151-.253-.456-.253-.884V8.766c0-.332-.042-.594-.14-.801a1.19 1.19 0 0 0-.45-.498 1.828 1.828 0 0 0-.717-.249 7.252 7.252 0 0 0-1.04-.069zm-6.479 1.975c-.675 0-1.209.14-1.588.421-.38.281-.576.689-.576 1.209 0 .422.112.773.351 1.026s.618.478 1.152.688c.043.015.14.057.296.113.45.183.758.31.913.436a.592.592 0 0 1 .239.478c0 .224-.084.393-.253.506-.169.112-.408.168-.717.168-.295 0-.632-.056-.984-.155a3.901 3.901 0 0 1-.885-.337l-.14 1.04c.505.296 1.18.436 2.037.436.717 0 1.265-.155 1.659-.464.393-.309.59-.759.59-1.335 0-.436-.126-.787-.38-1.054-.252-.267-.632-.492-1.166-.689-.382-.15-.84-.277-1.209-.506a.465.465 0 0 1-.224-.421c0-.183.084-.324.239-.422.154-.098.365-.14.646-.14.506 0 1.026.126 1.574.379l.365-.956c-.562-.28-1.208-.421-1.939-.421zm4.512 0c-.675 0-1.21.14-1.589.421-.38.281-.576.689-.576 1.209 0 .422.112.773.351 1.026.24.253.619.478 1.153.688.042.015.14.057.295.113.45.183.759.31.914.436a.592.592 0 0 1 .238.478c0 .224-.084.393-.253.506-.168.112-.407.168-.716.168a3.72 3.72 0 0 1-.984-.155 3.904 3.904 0 0 1-.886-.337l-.14 1.04c.506.296 1.18.436 2.038.436.702 0 1.265-.155 1.686-.464.394-.309.59-.759.59-1.335 0-.436-.126-.787-.379-1.054s-.632-.492-1.166-.689c-.392-.153-.842-.277-1.209-.506a.465.465 0 0 1-.225-.421c0-.183.085-.324.24-.422.154-.098.364-.14.646-.14.506 0 1.026.126 1.574.379l.337-.956c-.562-.28-1.209-.421-1.94-.421zm-9.46.014c-.842 0-1.503.267-1.995.815-.492.548-.73 1.279-.73 2.192 0 .956.252 1.687.772 2.22.52.535 1.237.802 2.165.802.8 0 1.49-.183 2.08-.52l-.197-.984a3.66 3.66 0 0 1-1.813.492c-.492 0-.886-.155-1.167-.45-.28-.295-.435-.716-.45-1.25h3.852v-.591c0-.829-.225-1.49-.661-1.982-.45-.491-1.054-.744-1.855-.744zm-.013.983c.38 0 .674.127.885.38.211.253.323.618.323 1.082H7.67c.042-.492.182-.857.407-1.096.253-.239.548-.366.9-.366Z" />
    </symbol>
    <symbol id="skill-sass_devicon" viewBox="0 0 128 128">
        <title aria-hidden="true">LESS</title>
        <path fill-rule="evenodd" clip-rule="evenodd" fill="#2A4D80" d="M122.301 58.635c-.6-1.299-.89-2.836-.952-4.283-.154-3.561-.023-7.135-.184-10.696-.144-3.189-1.282-6.063-4.344-7.707-2.696-1.447-5.821-1.591-8.821-1.625v5.691c1 .034.754.065.998.078 4.029.198 5.379 1.476 5.43 5.473.038 2.972.012 5.946.06 8.917.059 3.605.597 7.046 3.894 9.322.056.039.051.182.083.348-1.678 1.192-3.006 2.727-3.392 4.822a34.53 34.53 0 00-.54 5.153c-.096 3.118.003 6.243-.086 9.361-.07 2.442-1.227 3.588-3.604 4.132-.895.206-1.843.279-2.843.406v5.677c2-.12 3.017-.199 4.387-.347 5.156-.558 8.059-3.241 8.654-8.243.186-1.568.165-3.166.2-4.75.066-2.969.032-5.952.298-8.903.271-3.011 2.461-4.675 5.461-4.509v-5.951c-2 .358-3.843-.507-4.699-2.366zM28.314 70.768C28.313 59.219 28 47.67 28 36.122v-1.817c-3 0-6.226-.029-9.391.014-1.285.017-2.418.127-3.692.301-4.877.664-7.228 2.953-8.092 7.812-.25 1.402-.2 2.859-.221 4.293-.039 2.726.039 5.453-.005 8.178-.055 3.432-1.672 6.092-5.172 6.294-.124.007.573.15-.427.236v5.305c4 .628 5.273 2.243 5.539 5.959.042.592.053 1.189.059 1.784.034 3.32-.004 6.645.146 9.959.141 3.093.828 5.857 3.751 7.48C13.225 93.436 17 93.559 19 93.638v-5.664c0-.048-.21-.092-.405-.104-4.339-.265-5.317-1.443-5.343-5.785-.017-2.875.106-5.75.06-8.625-.058-3.612-.586-7.038-3.856-9.324-.05-.035-.001-.183-.017-.383 2.199-1.39 3.368-3.516 3.686-6.094.176-1.422.235-2.864.26-4.299.05-2.973-.003-5.949.078-8.92.057-2.088 1.39-3.61 3.091-3.952 1.612-.325 2.446-.315 5.446-.466v2.056c0 10.31-.367 20.619-.313 30.929.019 3.531.41 7.012 4.195 8.537 2.058.829 4.263 1.084 6.627 1.642.395-2.312.524-4.23.847-6.128-4.357-1.25-5.042-1.898-5.042-6.29zm26.674-19.893c-7.34-3.51-16.248-.441-19.666 6.921-2.574 5.544-2.482 11.25-.216 16.872 1.229 3.048 3.45 5.33 6.473 6.672 5.904 2.621 11.879 1.984 17.832.144.321-.1.731-.718.692-1.046-.203-1.661-.54-3.306-.841-5.021-1.417.357-2.601.722-3.811.949-3.197.601-6.401.6-9.512-.637-3.072-1.22-5.135-4.73-4.622-7.73h20.872c.255-3 .154-7.125-1.123-10.536-1.14-3.049-3.108-5.167-6.078-6.588zM54.944 63H41.228c.007-4 3.264-7.59 7.537-7.508 3.753.072 6.349 3.508 6.179 7.508zm56.108 12.279c.492-5.054-1.034-7.898-5.534-10.094-1.596-.779-3.29-1.356-4.916-2.078-1.217-.54-2.442-1.087-3.58-1.771-1.108-.665-1.572-1.769-1.408-3.062.161-1.277.982-2.119 2.168-2.359 1.437-.292 2.943-.542 4.388-.424 2.042.167 4.056.69 6.163 1.075l1.332-5.818c-2.851-.434-5.509-.995-8.195-1.207-2.987-.235-5.896.261-8.63 1.67-5.777 2.977-5.883 12.116-.574 15.116 1.586.896 3.283 1.596 4.933 2.38 1.737.827 3.537 1.546 5.199 2.504 1.262.727 1.713 1.996 1.375 3.475-.313 1.375-1.354 1.988-2.577 2.105-1.86.177-3.768.347-5.609.128-2.217-.264-4.387-.937-6.658-1.451l-1.158 5.79c5.333 2.002 10.61 2.33 15.938 1.149 4.459-.988 6.999-3.596 7.343-7.128zm-28.415-9.452c-1.959-1.039-4.066-1.797-6.088-2.723-1.255-.575-2.584-1.074-3.69-1.871-2.127-1.533-1.731-4.472.746-5.258 1.421-.452 3.028-.592 4.521-.48 2.034.153 4.041.679 6.162 1.063l1.258-5.546c-1.077-.293-2.052-.612-3.051-.822-3.971-.836-7.963-1.16-11.874.215-3.36 1.182-5.691 3.392-6.152 7.11-.516 4.152.861 7.43 4.696 9.402 1.535.79 3.18 1.363 4.747 2.095 1.564.73 3.161 1.427 4.614 2.343 1.111.7 1.549 1.885 1.236 3.255-.311 1.358-1.301 2.042-2.533 2.169-1.86.191-3.769.368-5.611.153-2.226-.26-4.403-.935-6.714-1.455-.341 1.613-.741 3.238-.99 4.885-.054.358.345 1.046.681 1.163 5.384 1.866 10.864 2.134 16.34.521 3.27-.962 5.557-3.051 6.018-6.623.523-4.055-.444-7.544-4.316-9.596z"></path>
    </symbol>
</svg>