<svg xmlns="http://www.w3.org/2000/svg" style="display: none;">
  <defs>
    <symbol id="skill-olist_colored" viewBox="0 0 652.9 411.42">
      <title aria-hidden="true">Olist Vnda</title>
      <path class="cls-1" d="m528.76,202.7h-26.1s-.1,36.5-.1,36.5c0,17.55,14.98,21.12,26.34,21.6,1.49.06,2.66,1.3,2.66,2.8v23.65c0,1.59-1.3,2.84-2.89,2.8-19.66-.47-36.04-5.79-45.81-15.82-13.67-14.04-13.35-30.09-13.25-31.5l.29-100.9c0-1.54,1.26-2.79,2.8-2.79h27.39c1.55,0,2.81,1.27,2.8,2.82l-.23,33.17h26.1c1.55,0,2.8,1.25,2.8,2.8v22.07c0,1.55-1.25,2.8-2.8,2.8Z" fill="#0a4ee4" />
      <path class="cls-1" d="m288.85,282.87l.07-158.73c0-1.55-1.25-2.8-2.8-2.8h-27.44c-1.55,0-2.8,1.25-2.8,2.8v158.73c0,1.55,1.25,2.8,2.8,2.8h27.37c1.55,0,2.8-1.25,2.8-2.8Z" fill="#0a4ee4" />
      <path class="cls-1" d="m435.39,220.86c-8.4-3.16-19.54-5.54-29.39-7.16-4.88-.86-8.77-2.11-11.58-3.73-4.81-2.45-4.88-10.05-.14-12.81,5.38-3.65,18.52-3.31,24.07.79,2.13,1.26,3.83,3.57,5.05,6.33.41.93,1.44,1.41,2.41,1.12l24.72-7.53c1.65-.5,2.44-2.36,1.7-3.92-3.11-6.59-7.96-12.19-14.57-16.62-16.14-11.65-49.44-11.48-64.9.6-13.84,8.93-17.29,33.37-6.6,45.98,9.05,10.8,23.65,14.67,37.8,17.65l.14.03c6.15.96,16.67,3.03,20,5.49,5.26,3.14,4.71,10.41-.33,13.79-2.83,2.09-7.4,3.15-13.59,3.15-11.96-.02-19.95-4.37-23.56-14.42-.34-.94-1.41-1.52-2.38-1.26l-24.91,6.45c-1.54.4-2.45,2-1.99,3.52,2.8,9.07,8.21,16.59,16.14,21.89,26.63,17.89,86.03,13.3,85.16-28.62,0-8.18-2.14-14.79-6.38-19.67-4.15-4.77-9.83-8.49-16.89-11.05Z" fill="#0a4ee4" />
      <rect x="308.64" y="170.58" width="33.45" height="115.09" rx="2.8" ry="2.8" fill="#0a4ee4" />
      <path d="m325.36,132.69c-10.06,0-18.22-8.16-18.22-18.22v19.23c0,10.06,8.16,18.22,18.22,18.22,10.06,0,18.22-8.16,18.22-18.22v-19.23c0,10.06-8.16,18.22-18.22,18.22Z" fill="#e64e36" />
      <circle cx="325.36" cy="114.47" r="18.22" fill="#0a4ee4" />
      <path d="m181.81,168.73c-33.51,0-60.67,27.16-60.67,60.67,0,33.51,27.16,60.67,60.67,60.67,33.51,0,60.67-27.16,60.67-60.67,0-33.51-27.16-60.67-60.67-60.67Zm0,90.45c-16.45,0-29.78-13.33-29.78-29.78s13.33-29.78,29.78-29.78,29.78,13.33,29.78,29.78-13.33,29.78-29.78,29.78Z" fill="#0a4ee4" />
    </symbol>

    <symbol id="skill-olist_monochrome" viewBox="0 0 652.9 411.42">
      <title aria-hidden="true">Olist Vnda</title>
      <path class="cls-1" d="m528.76,202.7h-26.1s-.1,36.5-.1,36.5c0,17.55,14.98,21.12,26.34,21.6,1.49.06,2.66,1.3,2.66,2.8v23.65c0,1.59-1.3,2.84-2.89,2.8-19.66-.47-36.04-5.79-45.81-15.82-13.67-14.04-13.35-30.09-13.25-31.5l.29-100.9c0-1.54,1.26-2.79,2.8-2.79h27.39c1.55,0,2.81,1.27,2.8,2.82l-.23,33.17h26.1c1.55,0,2.8,1.25,2.8,2.8v22.07c0,1.55-1.25,2.8-2.8,2.8Z" />
      <path class="cls-1" d="m288.85,282.87l.07-158.73c0-1.55-1.25-2.8-2.8-2.8h-27.44c-1.55,0-2.8,1.25-2.8,2.8v158.73c0,1.55,1.25,2.8,2.8,2.8h27.37c1.55,0,2.8-1.25,2.8-2.8Z" />
      <path class="cls-1" d="m435.39,220.86c-8.4-3.16-19.54-5.54-29.39-7.16-4.88-.86-8.77-2.11-11.58-3.73-4.81-2.45-4.88-10.05-.14-12.81,5.38-3.65,18.52-3.31,24.07.79,2.13,1.26,3.83,3.57,5.05,6.33.41.93,1.44,1.41,2.41,1.12l24.72-7.53c1.65-.5,2.44-2.36,1.7-3.92-3.11-6.59-7.96-12.19-14.57-16.62-16.14-11.65-49.44-11.48-64.9.6-13.84,8.93-17.29,33.37-6.6,45.98,9.05,10.8,23.65,14.67,37.8,17.65l.14.03c6.15.96,16.67,3.03,20,5.49,5.26,3.14,4.71,10.41-.33,13.79-2.83,2.09-7.4,3.15-13.59,3.15-11.96-.02-19.95-4.37-23.56-14.42-.34-.94-1.41-1.52-2.38-1.26l-24.91,6.45c-1.54.4-2.45,2-1.99,3.52,2.8,9.07,8.21,16.59,16.14,21.89,26.63,17.89,86.03,13.3,85.16-28.62,0-8.18-2.14-14.79-6.38-19.67-4.15-4.77-9.83-8.49-16.89-11.05Z" />
      <rect x="308.64" y="170.58" width="33.45" height="115.09" rx="2.8" ry="2.8" />
      <path d="m325.36,132.69c-10.06,0-18.22-8.16-18.22-18.22v19.23c0,10.06,8.16,18.22,18.22,18.22,10.06,0,18.22-8.16,18.22-18.22v-19.23c0,10.06-8.16,18.22-18.22,18.22Z" />
      <circle cx="325.36" cy="114.47" r="18.22" />
      <path d="m181.81,168.73c-33.51,0-60.67,27.16-60.67,60.67,0,33.51,27.16,60.67,60.67,60.67,33.51,0,60.67-27.16,60.67-60.67,0-33.51-27.16-60.67-60.67-60.67Zm0,90.45c-16.45,0-29.78-13.33-29.78-29.78s13.33-29.78,29.78-29.78,29.78,13.33,29.78,29.78-13.33,29.78-29.78,29.78Z" />
    </symbol>
  </defs>
</svg>