<svg id="Layer_1" data-name="Layer 1" xmlns="http://www.w3.org/2000/svg" viewBox="0 0 1200 1200">
    <symbol id="skill-vnda_icon" viewBox="0 0 1200 1200">
        <title aria-hidden="true">Olist Vnda</title>
        <path class="cls-1" d="M403.33,505.61l-75.61,184.1h-40.6l-69.3-184.1h54.95L309.87,619h.7L348,505.61Z" />
        <path class="cls-1" d="M465.26,505.61l3.85,25.2a69.39,69.39,0,0,1,57-29.4,62,62,0,0,1,49,24.15c14.35,18.55,16.45,42.35,16.45,68.6v95.55h-49.7v-93.1c0-13.65-.35-29.05-5.6-39.55-4.55-9.1-13.65-12.95-24.5-12.95-14.7,0-30.8,8.4-39.9,23.45V689.71h-49.7V505.61Z" />
        <path class="cls-1" d="M756.14,689.71,751.94,667c-13,20.3-37.8,27-56.7,27-48.65,0-85.75-43.41-85.75-97,0-51.8,36.4-95.55,86.45-95.55,17.5,0,39.55,6.3,53.55,22.05V426.14h49.7V689.71Zm-6.65-125.65c-12.6-14.7-27.3-19.95-42.7-19.95-31.85,0-46.55,28.35-46.55,54.25,0,26.95,17.5,52.85,45.85,52.85,15.75,0,32.55-6,43.4-24.15Z" />
        <path class="cls-1" d="M939.13,689.71,935.28,674c-11.9,14.71-30.45,20-50,20-34.3,0-66.15-20.66-66.15-58.46,0-45.15,42-59.5,80.15-59.5a164.52,164.52,0,0,1,33.25,3.85V577c0-23.1-9.45-37.1-36.4-37.1-21,0-39.55,7.7-55.65,16.1l-13.3-35.7c23.45-11.55,51.8-18.9,79.1-18.9,51.1,0,75.95,29.75,75.95,77.7v110.6Zm-6.65-80.15a115.12,115.12,0,0,0-25.2-3.15c-18.2,0-39.55,6.65-39.55,28.35,0,16.1,13.3,24.5,28,24.5,14.35,0,26.25-6.3,36.75-15.75Z" />
        <path class="cls-1" d="M548.68,727.43V751a14.45,14.45,0,0,1,11.82-5.87c10.7,0,18.58,8.63,18.58,19.55,0,9.82-7.36,19.41-18.74,19.41a16.56,16.56,0,0,1-11.67-4.91v4h-6.76V727.44h6.77Zm0,44.76a13.53,13.53,0,0,0,10.78,5.65c8.62,0,12.71-6.92,12.71-13.31,0-6.92-4.83-13.16-12.57-13.16-4,0-9.07,2.46-10.92,7.07Z" />
        <path class="cls-1" d="M590.16,746l9.67,28.17H600L609.86,746h7.36l-20.89,53.9-5.94-2.31,5.87-15.54L582.65,746Z" />
        <rect class="cls-1" x="691.01" y="718.07" width="12.29" height="64.99" />
        <path class="cls-1" d="M660.17,737.48a23.31,23.31,0,1,0,23.31,23.31A23.31,23.31,0,0,0,660.17,737.48Zm0,34.76a11.44,11.44,0,1,1,11.44-11.44A11.44,11.44,0,0,1,660.17,772.24Z" />
        <path class="cls-1" d="M751.39,755.42c-3.8-1.56-7.18-3-7.18-5.89,0-2.17,2.08-3.47,4.42-3.47a14,14,0,0,1,9,3.82l5.09-9.18c-5.14-3.08-8-4.25-14.09-4.25-8.3,0-16.27,4.68-16.27,13.95,0,8,6,11.09,11.42,13.43,4.5,2,8.66,3.38,8.66,6.59,0,2.77-3.3,4-5.8,4-4.42,0-7.27-2-10.73-5.37l-4.9,8.7c5.14,4.12,9.14,6.38,16.24,6.38,8.82,0,17.48-4.6,17.48-14.64C764.72,760.79,757.28,757.85,751.39,755.42Z" />
        <rect class="cls-1" x="712.36" y="737.48" width="12.29" height="45.58" />
        <path class="cls-1" d="M795,772.32a10.57,10.57,0,0,1-4.93,1.29c-2.6,0-3.63-1.64-4-4.33a29.26,29.26,0,0,1-.17-3.9V747.7h11.59V737.48H785.87V727.42H775.48l-1.9,10.06h-5.45V747.7h5.45v19a26.77,26.77,0,0,0,.86,7.62c1.65,5.9,6.41,9.79,13.5,9.79a22.91,22.91,0,0,0,10.82-2.69Z" />
        <rect class="cls-1" x="712.36" y="718.06" width="12.29" height="10.48" />
    </symbol>
    <symbol id="skill-vnda_icon_white" viewBox="0 0 100 40">
        <title aria-hidden="true">Olist Vnda</title>
        <path d="M27.2074 1.42578L16.9273 25.1975H10.2456L0 1.42578H7.33254L13.8431 16.9105L20.4903 1.42578H27.2074Z" fill="#ffffff" />
        <path d="M44.5709 8.52367C45.9758 9.88195 46.6778 11.9313 46.6778 14.67V25.1971H40.1673V15.7224C40.1673 13.2095 39.151 11.9535 37.1175 11.9535C35.998 11.9535 35.1016 12.3156 34.4276 13.0399C33.7534 13.7651 33.4169 14.8516 33.4169 16.3001V25.1971H26.9062V6.79126H33.1081V8.79462C33.8389 8.04725 34.7065 7.47595 35.7126 7.07971C36.7177 6.68437 37.8139 6.48535 39.0022 6.48535C41.31 6.48625 43.1659 7.16539 44.5709 8.52367Z" fill="#ffffff" />
        <path d="M69.3139 0V25.1972H63.1117V23.3635C61.9013 24.79 60.0842 25.5032 57.6643 25.5032C55.9737 25.5032 54.4312 25.1125 53.0382 24.332C51.6447 23.5506 50.5428 22.4365 49.7318 20.987C48.921 19.5384 48.5156 17.8631 48.5156 15.9611C48.5156 14.0592 48.921 12.3904 49.7318 10.9519C50.5428 9.5144 51.6447 8.41046 53.0382 7.64099C54.4312 6.87157 55.9737 6.48638 57.6643 6.48638C59.8796 6.48638 61.5927 7.12036 62.8041 8.38836V0H69.3139ZM61.8093 19.203C62.54 18.4216 62.9057 17.3406 62.9057 15.9602C62.9057 14.602 62.5455 13.5376 61.8258 12.7682C61.106 11.9987 60.1757 11.6135 59.0338 11.6135C57.8909 11.6135 56.9546 11.9987 56.2238 12.7682C55.492 13.5385 55.1274 14.602 55.1274 15.9602C55.1274 17.3415 55.493 18.4225 56.2238 19.203C56.9546 19.9844 57.8909 20.3742 59.0338 20.3742C60.1532 20.3751 61.0785 19.9844 61.8093 19.203Z" fill="#ffffff" />
        <path d="M87.0992 8.57529C88.7207 9.96763 89.5315 12.1018 89.5315 14.9769V25.1981H83.4664V22.8206C82.529 24.6093 80.7019 25.5031 77.9844 25.5031C76.5449 25.5031 75.3 25.2533 74.2491 24.7558C73.1982 24.2581 72.4045 23.5845 71.8678 22.7349C71.3306 21.8862 71.0625 20.9177 71.0625 19.8313C71.0625 18.0879 71.7357 16.736 73.0842 15.773C74.4312 14.811 76.5104 14.33 79.3204 14.33H83.0212C82.9067 12.3829 81.5927 11.4098 79.0803 11.4098C78.1895 11.4098 77.2867 11.5517 76.3739 11.8346C75.4595 12.1175 74.6833 12.5082 74.0435 13.0058L71.8503 8.62506C72.8786 7.94592 74.1291 7.41973 75.6021 7.0456C77.0746 6.67147 78.5541 6.48535 80.0392 6.48535C83.1243 6.48625 85.4766 7.1829 87.0992 8.57529ZM81.7883 20.8845C82.359 20.5224 82.7701 19.9907 83.0217 19.2885V17.6925H80.2122C78.3151 17.6925 77.3677 18.3154 77.3677 19.5604C77.3677 20.1262 77.5843 20.5795 78.0185 20.9187C78.4521 21.2578 79.0468 21.4282 79.8001 21.4282C80.5543 21.4282 81.2171 21.2476 81.7883 20.8845Z" fill="#ffffff" />
        <path d="M92.8101 24.416C92.0563 23.6917 91.6797 22.7748 91.6797 21.6653C91.6797 20.5337 92.0508 19.6168 92.7936 18.9147C93.5353 18.2134 94.4662 17.8623 95.5856 17.8623C96.7275 17.8623 97.6638 18.2134 98.3956 18.9147C99.1263 19.6168 99.4919 20.5337 99.4919 21.6653C99.4919 22.7748 99.1198 23.6917 98.3781 24.416C97.6353 25.1412 96.7045 25.5024 95.5856 25.5024C94.4897 25.5024 93.5644 25.1412 92.8101 24.416Z" fill="#ffffff" />
        <path d="M47.651 29.5996V32.9815C48.0387 32.4267 48.7165 32.1383 49.3627 32.1383C50.9127 32.1383 52.0536 33.3758 52.0536 34.9442C52.0536 36.3523 50.9882 37.729 49.3414 37.729C48.7063 37.729 48.0824 37.4627 47.651 37.025V37.6009H46.6719V29.5996H47.651ZM47.651 36.0215C48.0173 36.544 48.6524 36.8324 49.2121 36.8324C50.4611 36.8324 51.0533 35.8399 51.0533 34.923C51.0533 33.9306 50.354 33.0349 49.2344 33.0349C48.6533 33.0349 47.9215 33.3869 47.6519 34.0485V36.0215H47.651Z" fill="#ffffff" />
        <path d="M53.6572 32.2656L55.0567 36.3091H55.0782L56.5102 32.2656H57.5756L54.551 39.9997L53.6897 39.6689L54.5405 37.4388L52.5703 32.2646H53.6572V32.2656Z" fill="#ffffff" />
        <path d="M70.0458 28.2567H68.2656V37.5822H70.0458V28.2567Z" fill="#ffffff" />
        <path d="M63.7971 31.043C61.9324 31.043 60.4219 32.5404 60.4219 34.388C60.4219 36.2356 61.9324 37.733 63.7971 37.733C65.6612 37.733 67.1723 36.2356 67.1723 34.388C67.1723 32.5404 65.6612 31.043 63.7971 31.043ZM63.7971 36.0292C62.8822 36.0292 62.14 35.2938 62.14 34.387C62.14 33.4803 62.8822 32.745 63.7971 32.745C64.7119 32.745 65.4537 33.4803 65.4537 34.387C65.4547 35.2947 64.7129 36.0292 63.7971 36.0292Z" fill="#ffffff" />
        <path d="M77.0067 33.6156C76.455 33.3916 75.9664 33.1806 75.9664 32.7696C75.9664 32.4591 76.2665 32.272 76.6051 32.272C77.1063 32.272 77.5699 32.5208 77.9086 32.8194L78.6448 31.5026C77.9 31.0603 77.4829 30.8916 76.6051 30.8916C75.4017 30.8916 74.2498 31.5634 74.2498 32.8931C74.2498 34.0367 75.1146 34.4845 75.9038 34.8208C76.5556 35.1065 77.1573 35.3056 77.1573 35.7654C77.1573 36.1635 76.6811 36.3376 76.3175 36.3376C75.6788 36.3376 75.2651 36.052 74.7639 35.5664L74.0547 36.8149C74.7995 37.4057 75.3776 37.73 76.405 37.73C77.6835 37.73 78.9359 37.0711 78.9359 35.629C78.9359 34.3859 77.8585 33.9639 77.0067 33.6156Z" fill="#ffffff" />
        <path d="M73.1312 31.043H71.3516V37.5837H73.1312V31.043Z" fill="#ffffff" />
        <path d="M83.3136 36.0409C83.0875 36.1524 82.8744 36.227 82.5993 36.227C82.2237 36.227 82.0731 35.9911 82.0226 35.605C81.9976 35.4189 81.9976 35.2447 81.9976 35.0457V32.5098H83.6767V31.0427H81.9976V29.6006H80.4941L80.219 31.0427H79.4297V32.5098H80.219V35.2327C80.219 35.6179 80.244 36.004 80.3445 36.3266C80.5826 37.1725 81.2713 37.7318 82.2987 37.7318C82.8129 37.7318 83.4391 37.5955 83.8647 37.3466L83.3136 36.0409Z" fill="#ffffff" />
        <path d="M73.1312 28.2559H71.3516V29.7607H73.1312V28.2559Z" /*fill="#ffffff" */ />
    </symbol>
    <symbol id="skill-vnda_icon_gold" viewBox="0 0 100 40">
        <title aria-hidden="true">Olist Vnda</title>
        <path d="M27.2074 1.42578L16.9273 25.1975H10.2456L0 1.42578H7.33254L13.8431 16.9105L20.4903 1.42578H27.2074Z" fill="#daa520" />
        <path d="M44.5709 8.52367C45.9758 9.88195 46.6778 11.9313 46.6778 14.67V25.1971H40.1673V15.7224C40.1673 13.2095 39.151 11.9535 37.1175 11.9535C35.998 11.9535 35.1016 12.3156 34.4276 13.0399C33.7534 13.7651 33.4169 14.8516 33.4169 16.3001V25.1971H26.9062V6.79126H33.1081V8.79462C33.8389 8.04725 34.7065 7.47595 35.7126 7.07971C36.7177 6.68437 37.8139 6.48535 39.0022 6.48535C41.31 6.48625 43.1659 7.16539 44.5709 8.52367Z" fill="#daa520" />
        <path d="M69.3139 0V25.1972H63.1117V23.3635C61.9013 24.79 60.0842 25.5032 57.6643 25.5032C55.9737 25.5032 54.4312 25.1125 53.0382 24.332C51.6447 23.5506 50.5428 22.4365 49.7318 20.987C48.921 19.5384 48.5156 17.8631 48.5156 15.9611C48.5156 14.0592 48.921 12.3904 49.7318 10.9519C50.5428 9.5144 51.6447 8.41046 53.0382 7.64099C54.4312 6.87157 55.9737 6.48638 57.6643 6.48638C59.8796 6.48638 61.5927 7.12036 62.8041 8.38836V0H69.3139ZM61.8093 19.203C62.54 18.4216 62.9057 17.3406 62.9057 15.9602C62.9057 14.602 62.5455 13.5376 61.8258 12.7682C61.106 11.9987 60.1757 11.6135 59.0338 11.6135C57.8909 11.6135 56.9546 11.9987 56.2238 12.7682C55.492 13.5385 55.1274 14.602 55.1274 15.9602C55.1274 17.3415 55.493 18.4225 56.2238 19.203C56.9546 19.9844 57.8909 20.3742 59.0338 20.3742C60.1532 20.3751 61.0785 19.9844 61.8093 19.203Z" fill="#daa520" />
        <path d="M87.0992 8.57529C88.7207 9.96763 89.5315 12.1018 89.5315 14.9769V25.1981H83.4664V22.8206C82.529 24.6093 80.7019 25.5031 77.9844 25.5031C76.5449 25.5031 75.3 25.2533 74.2491 24.7558C73.1982 24.2581 72.4045 23.5845 71.8678 22.7349C71.3306 21.8862 71.0625 20.9177 71.0625 19.8313C71.0625 18.0879 71.7357 16.736 73.0842 15.773C74.4312 14.811 76.5104 14.33 79.3204 14.33H83.0212C82.9067 12.3829 81.5927 11.4098 79.0803 11.4098C78.1895 11.4098 77.2867 11.5517 76.3739 11.8346C75.4595 12.1175 74.6833 12.5082 74.0435 13.0058L71.8503 8.62506C72.8786 7.94592 74.1291 7.41973 75.6021 7.0456C77.0746 6.67147 78.5541 6.48535 80.0392 6.48535C83.1243 6.48625 85.4766 7.1829 87.0992 8.57529ZM81.7883 20.8845C82.359 20.5224 82.7701 19.9907 83.0217 19.2885V17.6925H80.2122C78.3151 17.6925 77.3677 18.3154 77.3677 19.5604C77.3677 20.1262 77.5843 20.5795 78.0185 20.9187C78.4521 21.2578 79.0468 21.4282 79.8001 21.4282C80.5543 21.4282 81.2171 21.2476 81.7883 20.8845Z" fill="#daa520" />
        <path d="M92.8101 24.416C92.0563 23.6917 91.6797 22.7748 91.6797 21.6653C91.6797 20.5337 92.0508 19.6168 92.7936 18.9147C93.5353 18.2134 94.4662 17.8623 95.5856 17.8623C96.7275 17.8623 97.6638 18.2134 98.3956 18.9147C99.1263 19.6168 99.4919 20.5337 99.4919 21.6653C99.4919 22.7748 99.1198 23.6917 98.3781 24.416C97.6353 25.1412 96.7045 25.5024 95.5856 25.5024C94.4897 25.5024 93.5644 25.1412 92.8101 24.416Z" fill="#daa520" />
        <path d="M47.651 29.5996V32.9815C48.0387 32.4267 48.7165 32.1383 49.3627 32.1383C50.9127 32.1383 52.0536 33.3758 52.0536 34.9442C52.0536 36.3523 50.9882 37.729 49.3414 37.729C48.7063 37.729 48.0824 37.4627 47.651 37.025V37.6009H46.6719V29.5996H47.651ZM47.651 36.0215C48.0173 36.544 48.6524 36.8324 49.2121 36.8324C50.4611 36.8324 51.0533 35.8399 51.0533 34.923C51.0533 33.9306 50.354 33.0349 49.2344 33.0349C48.6533 33.0349 47.9215 33.3869 47.6519 34.0485V36.0215H47.651Z" fill="#daa520" />
        <path d="M53.6572 32.2656L55.0567 36.3091H55.0782L56.5102 32.2656H57.5756L54.551 39.9997L53.6897 39.6689L54.5405 37.4388L52.5703 32.2646H53.6572V32.2656Z" fill="#daa520" />
        <path d="M70.0458 28.2567H68.2656V37.5822H70.0458V28.2567Z" fill="#daa520" />
        <path d="M63.7971 31.043C61.9324 31.043 60.4219 32.5404 60.4219 34.388C60.4219 36.2356 61.9324 37.733 63.7971 37.733C65.6612 37.733 67.1723 36.2356 67.1723 34.388C67.1723 32.5404 65.6612 31.043 63.7971 31.043ZM63.7971 36.0292C62.8822 36.0292 62.14 35.2938 62.14 34.387C62.14 33.4803 62.8822 32.745 63.7971 32.745C64.7119 32.745 65.4537 33.4803 65.4537 34.387C65.4547 35.2947 64.7129 36.0292 63.7971 36.0292Z" fill="#daa520" />
        <path d="M77.0067 33.6156C76.455 33.3916 75.9664 33.1806 75.9664 32.7696C75.9664 32.4591 76.2665 32.272 76.6051 32.272C77.1063 32.272 77.5699 32.5208 77.9086 32.8194L78.6448 31.5026C77.9 31.0603 77.4829 30.8916 76.6051 30.8916C75.4017 30.8916 74.2498 31.5634 74.2498 32.8931C74.2498 34.0367 75.1146 34.4845 75.9038 34.8208C76.5556 35.1065 77.1573 35.3056 77.1573 35.7654C77.1573 36.1635 76.6811 36.3376 76.3175 36.3376C75.6788 36.3376 75.2651 36.052 74.7639 35.5664L74.0547 36.8149C74.7995 37.4057 75.3776 37.73 76.405 37.73C77.6835 37.73 78.9359 37.0711 78.9359 35.629C78.9359 34.3859 77.8585 33.9639 77.0067 33.6156Z" fill="#daa520" />
        <path d="M73.1312 31.043H71.3516V37.5837H73.1312V31.043Z" fill="#daa520" />
        <path d="M83.3136 36.0409C83.0875 36.1524 82.8744 36.227 82.5993 36.227C82.2237 36.227 82.0731 35.9911 82.0226 35.605C81.9976 35.4189 81.9976 35.2447 81.9976 35.0457V32.5098H83.6767V31.0427H81.9976V29.6006H80.4941L80.219 31.0427H79.4297V32.5098H80.219V35.2327C80.219 35.6179 80.244 36.004 80.3445 36.3266C80.5826 37.1725 81.2713 37.7318 82.2987 37.7318C82.8129 37.7318 83.4391 37.5955 83.8647 37.3466L83.3136 36.0409Z" fill="#daa520" />
        <path d="M73.1312 28.2559H71.3516V29.7607H73.1312V28.2559Z" /*fill="#daa520" */ />
    </symbol>
</svg>