<svg width="50" height="50" viewBox="0 0 1800 1800" fill="none" xmlns="http://www.w3.org/2000/svg">
    <path fill="none" stroke="white" stroke-width="10" fill-rule="evenodd" clip-rule="evenodd" d="M900 0L400 1350L200 700H0L400 1800L554.526 1398.23C551.548 1416.39 550 1435.03 550 1454.02C550 1645.1 706.7 1800 900 1800C1093.3 1800 1250 1645.1 1250 1454.02C1250 1435.03 1248.45 1416.39 1245.47 1398.23L1400 1800L1800 700H1600L1400 1350L900 0ZM1195.72 1268.87L900 500L604.282 1268.87C653.507 1192.2 732.403 1135.98 825 1116V1218.2C723.572 1249.69 650 1343.36 650 1454.02C650 1590.5 761.929 1701.15 900 1701.15C1038.07 1701.15 1150 1590.5 1150 1454.02C1150 1343.36 1076.43 1249.69 975 1218.2V1116C1067.6 1135.98 1146.49 1192.2 1195.72 1268.87Z" />
</svg>