<svg xmlns="http://www.w3.org/2000/svg" viewBox="0 0 24 24">
    <symbol id="wc-linkbio-deezer" viewBox="0 0 24 24" fill="none" xmlns="http://www.w3.org/2000/svg">
        <title>Deezer</title>
        <path fill-rule="evenodd" clip-rule="evenodd" d="M20.129 3.66216C20.3518 2.37513 20.676 1.56552 21.038 1.56353C21.7104 1.56552 22.2574 4.37232 22.2574 7.83755C22.2574 11.3028 21.7104 14.1116 21.038 14.1116C20.7615 14.1116 20.5069 13.6341 20.302 12.8345C19.9778 15.7606 19.3054 17.7717 18.5257 17.7717C17.9229 17.7717 17.3818 16.5643 17.0178 14.6586C16.7692 18.283 16.1465 20.853 15.4165 20.853C14.959 20.853 14.5412 19.8346 14.2329 18.1755C13.8609 21.599 13.0036 24 12.001 24C10.9984 24 10.1391 21.601 9.76908 18.1755C9.46274 19.8346 9.04501 20.853 8.58549 20.853C7.85545 20.853 7.23282 18.281 6.98417 14.6586C6.62014 16.5643 6.08106 17.7717 5.47634 17.7717C4.69855 17.7717 4.0242 15.7606 3.69996 12.8345C3.49706 13.6361 3.24045 14.1116 2.96394 14.1116C2.2896 14.1116 1.74455 11.3028 1.74455 7.83755C1.74455 4.37232 2.2896 1.56353 2.96394 1.56353C3.32598 1.56353 3.64824 2.37513 3.87302 3.66216C4.23307 1.44219 4.81591 0 5.47634 0C6.26009 0 6.93842 2.04094 7.26067 5.0029C7.57497 2.84658 8.05238 1.47203 8.58549 1.47203C9.33344 1.47203 9.97 4.17538 10.2067 7.94695C10.6503 6.01343 11.2928 4.8 12.003 4.8C12.7131 4.8 13.3557 6.01343 13.7973 7.94695C14.034 4.17538 14.6685 1.47203 15.4185 1.47203C15.9516 1.47203 16.427 2.84658 16.7433 5.0029C17.0636 2.04094 17.7439 0 18.5257 0C19.1841 0 19.7689 1.44418 20.129 3.66216ZM0 7.22089C0 5.67128 0.310319 4.41608 0.69225 4.41608C1.07418 4.41608 1.3845 5.67128 1.3845 7.22089C1.3845 8.77049 1.07418 10.0257 0.69225 10.0257C0.310319 10.0257 0 8.7685 0 7.22089ZM22.6175 7.22089C22.6175 5.67128 22.9278 4.41608 23.3097 4.41608C23.6917 4.41608 24.002 5.67128 24.002 7.22089C24.002 8.77049 23.6917 10.0257 23.3097 10.0257C22.9278 10.0257 22.6175 8.7685 22.6175 7.22089Z" fill="black" />
    </symbol>
    <symbol id="wc-linkbio-facebook" viewBox="0 0 24 24" fill="none" xmlns="http://www.w3.org/2000/svg">
        <title aria-hidden="true">Facebook</title>
        <path d="M9.101 23.691V15.711H6.627V12.044H9.101V10.464C9.101 6.37901 10.949 4.48601 14.959 4.48601C15.36 4.48601 15.914 4.52801 16.427 4.58901C16.8112 4.62855 17.1924 4.69369 17.568 4.78401V8.10901C17.3509 8.08875 17.133 8.07675 16.915 8.07301C16.6707 8.06667 16.4264 8.06367 16.182 8.06401C15.475 8.06401 14.923 8.16001 14.507 8.37301C14.2273 8.51332 13.9922 8.72869 13.828 8.99501C13.57 9.41501 13.454 9.99001 13.454 10.747V12.044H17.373L16.987 14.147L16.7 15.711H13.454V23.956C19.396 23.238 24 18.179 24 12.044C24 5.41701 18.627 0.0440063 12 0.0440063C5.373 0.0440063 0 5.41701 0 12.044C0 17.672 3.874 22.394 9.101 23.691Z" fill="black" />
    </symbol>
    <symbol id="wc-linkbio-github" viewBox="0 0 24 24" fill="none" xmlns="http://www.w3.org/2000/svg">
        <title aria-hidden="true">Github</title>
        <path d="M12 0.296997C5.37 0.296997 0 5.67 0 12.297C0 17.6 3.438 22.097 8.205 23.682C8.805 23.795 9.025 23.424 9.025 23.105C9.025 22.82 9.015 22.065 9.01 21.065C5.672 21.789 4.968 19.455 4.968 19.455C4.422 18.07 3.633 17.7 3.633 17.7C2.546 16.956 3.717 16.971 3.717 16.971C4.922 17.055 5.555 18.207 5.555 18.207C6.625 20.042 8.364 19.512 9.05 19.205C9.158 18.429 9.467 17.9 9.81 17.6C7.145 17.3 4.344 16.268 4.344 11.67C4.344 10.36 4.809 9.29 5.579 8.45C5.444 8.147 5.039 6.927 5.684 5.274C5.684 5.274 6.689 4.952 8.984 6.504C9.944 6.237 10.964 6.105 11.984 6.099C13.004 6.105 14.024 6.237 14.984 6.504C17.264 4.952 18.269 5.274 18.269 5.274C18.914 6.927 18.509 8.147 18.389 8.45C19.154 9.29 19.619 10.36 19.619 11.67C19.619 16.28 16.814 17.295 14.144 17.59C14.564 17.95 14.954 18.686 14.954 19.81C14.954 21.416 14.939 22.706 14.939 23.096C14.939 23.411 15.149 23.786 15.764 23.666C20.565 22.092 24 17.592 24 12.297C24 5.67 18.627 0.296997 12 0.296997Z" fill="black" />
    </symbol>
    <symbol id="wc-linkbio-instagram" viewBox="0 0 24 24" fill="none" xmlns="http://www.w3.org/2000/svg">
        <title aria-hidden="true">Instagram</title>
        <path d="M7.03008 0.0840168C5.75328 0.144217 4.88138 0.348017 4.11908 0.647417C3.33028 0.954917 2.66158 1.36742 1.99628 2.03512C1.33108 2.70282 0.921282 3.37192 0.616082 4.16212C0.320682 4.92592 0.120482 5.79862 0.0640816 7.07612C0.00768159 8.35362 -0.00481841 8.76432 0.00148159 12.0231C0.00768159 15.2817 0.0220816 15.6902 0.0839816 16.9704C0.144982 18.2469 0.347982 19.1186 0.647482 19.8811C0.955482 20.67 1.36748 21.3384 2.03548 22.0039C2.70338 22.6694 3.37198 23.0782 4.16398 23.3839C4.92718 23.6789 5.80008 23.88 7.07738 23.9359C8.35468 23.9919 8.76578 24.0049 12.0236 23.9986C15.2814 23.9924 15.6916 23.9779 16.9714 23.9172C18.2514 23.8565 19.1184 23.652 19.8812 23.3539C20.6701 23.0453 21.339 22.6339 22.004 21.9658C22.669 21.2976 23.0785 20.628 23.3835 19.8374C23.6792 19.0742 23.8801 18.2014 23.9355 16.925C23.9915 15.6441 24.0047 15.2352 23.9985 11.977C23.9922 8.71872 23.9775 8.31022 23.9168 7.03052C23.8561 5.75082 23.6528 4.88182 23.3535 4.11882C23.0451 3.32992 22.6335 2.66202 21.9659 1.99602C21.2982 1.33002 20.628 0.920817 19.8378 0.616517C19.074 0.321017 18.2017 0.119717 16.9244 0.0645168C15.6471 0.00931678 15.236 -0.00498321 11.977 0.00141679C8.71798 0.00761679 8.30998 0.0216168 7.03008 0.0840168ZM7.17028 21.7771C6.00028 21.7262 5.36498 21.5318 4.94158 21.3691C4.38098 21.1531 3.98158 20.892 3.55968 20.4741C3.13768 20.0563 2.87858 19.6555 2.65968 19.0961C2.49528 18.6727 2.29728 18.0381 2.24258 16.8681C2.18308 15.6036 2.17058 15.2239 2.16358 12.0201C2.15658 8.81642 2.16888 8.43712 2.22428 7.17212C2.27428 6.00312 2.46988 5.36712 2.63228 4.94392C2.84828 4.38262 3.10848 3.98392 3.52728 3.56232C3.94608 3.14062 4.34568 2.88092 4.90558 2.66202C5.32858 2.49692 5.96308 2.30062 7.13258 2.24492C8.39808 2.18492 8.77728 2.17292 11.9806 2.16592C15.1839 2.15892 15.5641 2.17092 16.8301 2.22672C17.9991 2.27752 18.6354 2.47122 19.0581 2.63472C19.6189 2.85072 20.0181 3.11012 20.4397 3.52972C20.8614 3.94912 21.1213 4.34732 21.3402 4.90842C21.5055 5.33012 21.7019 5.96442 21.7571 7.13472C21.8173 8.40022 21.831 8.77972 21.8367 11.9827C21.8425 15.1857 21.8312 15.5661 21.7757 16.8307C21.7247 18.0007 21.5307 18.6362 21.3677 19.0601C21.1517 19.6205 20.8914 20.0201 20.4723 20.4415C20.0533 20.863 19.6542 21.1226 19.094 21.3415C18.6716 21.5064 18.0363 21.7032 16.8678 21.7589C15.6022 21.8184 15.223 21.8309 12.0185 21.8379C8.81398 21.8449 8.43578 21.8319 7.17028 21.7771ZM16.953 5.58642C16.9535 5.87125 17.0384 6.14954 17.197 6.38609C17.3557 6.62265 17.5809 6.80684 17.8443 6.91537C18.1076 7.02391 18.3972 7.05191 18.6765 6.99583C18.9557 6.93975 19.2121 6.80212 19.4131 6.60034C19.6141 6.39855 19.7508 6.14169 19.8058 5.86222C19.8609 5.58276 19.8318 5.29325 19.7223 5.03032C19.6128 4.76739 19.4277 4.54284 19.1906 4.38508C18.9534 4.22731 18.6748 4.14342 18.39 4.14402C18.0082 4.14481 17.6423 4.29721 17.3728 4.56769C17.1034 4.83818 16.9523 5.20461 16.953 5.58642ZM5.83848 12.012C5.84518 15.4152 8.60908 18.1677 12.0115 18.1613C15.4141 18.1548 18.1685 15.3912 18.1621 11.988C18.1556 8.58482 15.3911 5.83152 11.9881 5.83822C8.58508 5.84492 5.83208 8.60922 5.83848 12.012ZM7.99998 12.0077C7.99842 11.2166 8.23149 10.4428 8.66971 9.78412C9.10793 9.12546 9.73163 8.61154 10.4619 8.30735C11.1922 8.00315 11.9963 7.92234 12.7726 8.07514C13.5488 8.22794 14.2623 8.60749 14.8228 9.16578C15.3833 9.72408 15.7657 10.436 15.9216 11.2117C16.0774 11.9873 15.9998 12.7917 15.6985 13.5232C15.3972 14.2547 14.8858 14.8804 14.2289 15.3213C13.572 15.7621 12.7991 15.9982 12.008 15.9998C11.4827 16.0009 10.9623 15.8985 10.4766 15.6985C9.99082 15.4985 9.54925 15.2047 9.17706 14.834C8.80487 14.4633 8.50935 14.0229 8.30739 13.5379C8.10542 13.053 8.00097 12.533 7.99998 12.0077Z" fill="black" />
    </symbol>
    <symbol id="wc-linkbio-linkedin" viewBox="0 0 24 24" fill="none" xmlns="http://www.w3.org/2000/svg">
        <title aria-hidden="true">Linkedin</title>
        <path d="M20.447 20.452H16.893V14.883C16.893 13.555 16.866 11.846 15.041 11.846C13.188 11.846 12.905 13.291 12.905 14.785V20.452H9.351V9H12.765V10.561H12.811C13.288 9.661 14.448 8.711 16.181 8.711C19.782 8.711 20.448 11.081 20.448 14.166L20.447 20.452ZM5.337 7.433C4.193 7.433 3.274 6.507 3.274 5.368C3.274 4.23 4.194 3.305 5.337 3.305C6.477 3.305 7.401 4.23 7.401 5.368C7.401 6.507 6.476 7.433 5.337 7.433ZM7.119 20.452H3.555V9H7.119V20.452ZM22.225 0H1.771C0.792 0 0 0.774 0 1.729V22.271C0 23.227 0.792 24 1.771 24H22.222C23.2 24 24 23.227 24 22.271V1.729C24 0.774 23.2 0 22.222 0H22.225Z" fill="black" />
    </symbol>
    <symbol id="wc-linkbio-site" viewBox="0 0 26 28" fill="none" xmlns="http://www.w3.org/2000/svg">
        <title aria-hidden="true">Site</title>
        <path fill-rule="evenodd" clip-rule="evenodd" d="M13 2L6.33334 20L3.66667 11.3333H1L6.33334 26L8.39368 20.6431C8.35397 20.8852 8.33333 21.1337 8.33333 21.3869C8.33333 23.9347 10.4227 26 13 26C15.5773 26 17.6667 23.9347 17.6667 21.3869C17.6667 21.1337 17.646 20.8852 17.6063 20.6431L19.6667 26L25 11.3333H22.3333L19.6667 20L13 2ZM16.9429 18.9182L13 8.66667L9.05709 18.9182C9.71343 17.896 10.7654 17.1465 12 16.88V18.2427C10.6476 18.6626 9.66667 19.9115 9.66667 21.3869C9.66667 23.2067 11.1591 24.682 13 24.682C14.841 24.682 16.3333 23.2067 16.3333 21.3869C16.3333 19.9115 15.3524 18.6626 14 18.2427V16.88C15.2346 17.1465 16.2866 17.896 16.9429 18.9182Z" fill="black" stroke="black" />
    </symbol>
    <symbol id="wc-linkbio-spotify" viewBox="0 0 24 24" fill="none" xmlns="http://www.w3.org/2000/svg">
        <title>Spotify</title>
        <path d="M12 0C5.4 0 0 5.4 0 12C0 18.6 5.4 24 12 24C18.6 24 24 18.6 24 12C24 5.4 18.66 0 12 0ZM17.521 17.34C17.281 17.699 16.861 17.82 16.5 17.58C13.68 15.84 10.14 15.479 5.939 16.439C5.521 16.561 5.16 16.26 5.04 15.9C4.92 15.479 5.22 15.12 5.58 15C10.14 13.979 14.1 14.4 17.22 16.32C17.64 16.5 17.699 16.979 17.521 17.34ZM18.961 14.04C18.66 14.46 18.12 14.64 17.699 14.34C14.46 12.36 9.54 11.76 5.76 12.96C5.281 13.08 4.74 12.84 4.62 12.36C4.5 11.88 4.74 11.339 5.22 11.219C9.6 9.9 15 10.561 18.72 12.84C19.081 13.021 19.26 13.62 18.961 14.04ZM19.081 10.68C15.24 8.4 8.82 8.16 5.16 9.301C4.56 9.48 3.96 9.12 3.78 8.58C3.6 7.979 3.96 7.38 4.5 7.199C8.76 5.939 15.78 6.179 20.221 8.82C20.76 9.12 20.94 9.84 20.64 10.38C20.341 10.801 19.62 10.979 19.081 10.68Z" fill="black" />
    </symbol>
    <symbol id="wc-linkbio-tiktok" viewBox="0 0 22 24" fill="none" xmlns="http://www.w3.org/2000/svg">
        <title aria-hidden="true">tikTok</title>
        <path d="M11.525 0.02C12.835 0 14.135 0.01 15.435 0C15.515 1.53 16.065 3.09 17.185 4.17C18.305 5.28 19.885 5.79 21.425 5.96V9.99C19.985 9.94 18.535 9.64 17.225 9.02C16.655 8.76 16.125 8.43 15.605 8.09C15.595 11.01 15.615 13.93 15.585 16.84C15.505 18.24 15.045 19.63 14.235 20.78C12.925 22.7 10.655 23.95 8.325 23.99C6.895 24.07 5.465 23.68 4.245 22.96C2.225 21.77 0.804998 19.59 0.594998 17.25C0.574998 16.75 0.564998 16.25 0.584998 15.76C0.764998 13.86 1.705 12.04 3.165 10.8C4.825 9.36 7.145 8.67 9.315 9.08C9.335 10.56 9.275 12.04 9.275 13.52C8.285 13.2 7.125 13.29 6.255 13.89C5.625 14.3 5.145 14.93 4.895 15.64C4.685 16.15 4.745 16.71 4.755 17.25C4.995 18.89 6.575 20.27 8.255 20.12C9.375 20.11 10.445 19.46 11.025 18.51C11.215 18.18 11.425 17.84 11.435 17.45C11.535 15.66 11.495 13.88 11.505 12.09C11.515 8.06 11.495 4.04 11.525 0.02Z" fill="black" />
    </symbol>
    <symbol id="wc-linkbio-youtube" viewBox="0 0 24 18" fill="none" xmlns="http://www.w3.org/2000/svg">
        <title>Youtube</title>
        <path d="M23.498 3.18601C23.3624 2.67529 23.095 2.20915 22.7226 1.83428C22.3502 1.4594 21.8858 1.18896 21.376 1.05001C19.505 0.545014 12 0.545013 12 0.545013C12 0.545013 4.495 0.545014 2.623 1.05001C2.11341 1.1892 1.64929 1.45975 1.27708 1.8346C0.904861 2.20944 0.637591 2.67545 0.502 3.18601C0 5.07001 0 9.00001 0 9.00001C0 9.00001 0 12.93 0.502 14.814C0.637586 15.3247 0.904975 15.7909 1.27739 16.1658C1.64981 16.5406 2.11418 16.8111 2.624 16.95C4.495 17.455 12 17.455 12 17.455C12 17.455 19.505 17.455 21.377 16.95C21.8869 16.8112 22.3513 16.5407 22.7237 16.1659C23.0961 15.791 23.3635 15.3248 23.499 14.814C24 12.93 24 9.00001 24 9.00001C24 9.00001 24 5.07001 23.498 3.18601ZM9.545 12.568V5.43201L15.818 9.00001L9.545 12.568Z" fill="black" />
    </symbol>
    <symbol id="wc-linkbio-youtube_music" viewBox="0 0 24 24" fill="none" xmlns="http://www.w3.org/2000/svg">
        <title>Youtube Music</title>
        <path d="M12 0C5.376 0 0 5.376 0 12C0 18.624 5.376 24 12 24C18.624 24 24 18.624 24 12C24 5.376 18.624 0 12 0ZM12 19.104C8.076 19.104 4.896 15.924 4.896 12C4.896 8.076 8.076 4.896 12 4.896C15.924 4.896 19.104 8.076 19.104 12C19.104 15.924 15.924 19.104 12 19.104ZM12 5.772C8.568 5.772 5.772 8.568 5.772 12C5.772 15.432 8.568 18.228 12 18.228C15.432 18.228 18.228 15.432 18.228 12C18.228 8.568 15.432 5.772 12 5.772ZM9.684 15.54V8.46L15.816 12L9.684 15.54Z" fill="black" />
    </symbol>
</svg>